<?xml version="1.0" encoding="UTF-8" standalone="no"?>
<svg
   xmlns:dc="http://purl.org/dc/elements/1.1/"
   xmlns:cc="http://creativecommons.org/ns#"
   xmlns:rdf="http://www.w3.org/1999/02/22-rdf-syntax-ns#"
   xmlns:svg="http://www.w3.org/2000/svg"
   xmlns="http://www.w3.org/2000/svg"
   xmlns:sodipodi="http://sodipodi.sourceforge.net/DTD/sodipodi-0.dtd"
   xmlns:inkscape="http://www.inkscape.org/namespaces/inkscape"
   version="1.1"
   id="svg2"
   xml:space="preserve"
   width="113.38667"
   height="48.439999"
   viewBox="0 0 113.38667 48.439999"
   sodipodi:docname="tecnm.eps"><metadata
     id="metadata8"><rdf:RDF><cc:Work
         rdf:about=""><dc:format>image/svg+xml</dc:format><dc:type
           rdf:resource="http://purl.org/dc/dcmitype/StillImage" /></cc:Work></rdf:RDF></metadata><defs
     id="defs6" /><sodipodi:namedview
     pagecolor="#ffffff"
     bordercolor="#666666"
     borderopacity="1"
     objecttolerance="10"
     gridtolerance="10"
     guidetolerance="10"
     inkscape:pageopacity="0"
     inkscape:pageshadow="2"
     inkscape:window-width="640"
     inkscape:window-height="480"
     id="namedview4" /><g
     id="g10"
     inkscape:groupmode="layer"
     inkscape:label="ink_ext_XXXXXX"
     transform="matrix(1.3333333,0,0,-1.3333333,0,48.44)"><g
       id="g12"
       transform="scale(0.1)"><path
         d="M 31.3867,326.988 C 25.2695,325.516 9.60938,320.32 4.03125,317.629 v -33.164 c 0,-9.496 -0.93359,-7.344 9.02735,-7.668 53.7227,-1.758 82.4687,-8.992 122.7544,-33.906 -0.805,9.945 -4.028,19.636 -8.813,28.332 -26.961,19.683 -52.3437,29.379 -85.5664,31.644 94.1684,22.492 178.7074,-67.816 147.3324,-161.125 -7.594,2.024 -23.133,8.086 -37.45,-4 6.957,-19.336 1.399,-49.5779 -24.484,-47.8123 0.922,-8.9141 -3.894,-20.9922 -16.965,-30.6836 C 91.6328,48.0742 63.4023,44.2969 49.3789,52.6875 31.957,49.8633 19.2383,55.0078 4.14063,62.418 V 46.4727 C 12.2852,41.1133 21.707,38.1836 31.3867,35.8906 L 38.2617,5.10547 C 39.8984,1.80078 42.8242,0.0234375 47.2383,0 h 46.4805 c 3.9453,0.0273438 6.6642,1.90234 8.4882,5.10547 l 6.637,31.66793 c 6.14,1.6329 12.222,3.6446 18.105,6.0664 l 24.02,-21.1914 c 3.09,-1.4257 6.301,-1.5703 9.801,1.086 l 35.293,26.1289 c 2.812,2.3047 4.16,5.289 3.726,9.082 l -13.176,29.043 c 4,4.9258 7.696,10.1094 11.047,15.4847 l 32.043,-3.0199 c 3.363,0.0469 5.692,2.1879 7.172,6.6369 l 13.23,41.926 c 1.149,3.804 0.688,7.035 -2.175,9.398 l -27.907,15.848 c 0.356,6.351 0.297,12.734 -0.156,19.066 l 27.684,16.379 c 3.027,1.617 3.433,5.063 1.773,9.828 l -13.867,41.578 c -0.852,4.039 -3.305,6.02 -7.109,6.246 l -32.024,-3.613 c -3.441,5.359 -7.222,10.477 -11.336,15.34 l 12.727,29.402 c 0.933,3.551 0.109,6.52 -4,8.918 l -35.688,25.449 c -3.429,2.375 -6.73,3.086 -9.8,0.918 l -23.664,-21.574 c -5.946,2.301 -11.993,4.215 -18.184,5.735 l -6.9962,31.355 c -1.1328,3.652 -3.9101,5.223 -8.7383,4.941 H 46.8867 c -5.1484,-0.171 -7.4726,-2.246 -8.5273,-5.011 z M 82.9883,192.465 h 3.9961 c 0.4101,0 0.75,-0.344 0.75,-0.758 v -1.539 c 0,-0.414 -0.3399,-0.754 -0.75,-0.754 h -3.9961 c -0.418,0 -0.7539,0.34 -0.7539,0.754 v 1.539 c 0,0.414 0.3359,0.758 0.7539,0.758 m 10.4492,66.906 c 6.6875,-1.789 10.6645,-8.66 8.8755,-15.348 -1.786,-6.699 -8.6567,-10.671 -15.3482,-8.882 -6.6835,1.785 -10.6601,8.66 -8.8789,15.347 1.7891,6.688 8.6602,10.672 15.3516,8.883 m 2.6953,-5.258 c 2.0078,-0.531 3.2031,-2.593 2.668,-4.601 -0.5469,-2.012 -2.6016,-3.203 -4.6094,-2.668 -2.0078,0.535 -3.2031,2.597 -2.6641,4.605 0.5352,2.008 2.6016,3.196 4.6055,2.664 M 84.9883,200.02 c 5.0117,0 9.0742,-4.063 9.0742,-9.082 0,-5.012 -4.0625,-9.067 -9.0742,-9.071 -5.0156,0.004 -9.0781,4.059 -9.0781,9.071 0,5.019 4.0625,9.082 9.0781,9.082 m 0,-4.469 c 2.543,0 4.6015,-2.071 4.6015,-4.613 0,-2.54 -2.0585,-4.602 -4.6015,-4.602 -2.5469,0 -4.6133,2.062 -4.6133,4.602 0,2.542 2.0664,4.613 4.6133,4.613 m 23.8907,55.035 c 9.07,-3.84 18.457,-7.969 27.098,-12.617 -0.036,-1.957 -0.289,-4.012 -0.446,-5.989 -0.656,-4.785 -2.179,-9.625 -3.433,-14.296 -13.375,5.816 -36.2894,6.671 -50.6253,2.699 -9.9571,5.262 -15.5664,16.543 -13.4063,27.902 0.25,-0.078 2.2344,-0.66 3.3203,-0.984 0.3711,-9.934 8.6602,-17.867 18.8281,-17.867 10.4062,0 18.8482,8.312 18.8482,18.566 0,0.879 -0.067,1.742 -0.184,2.586 M 98.3789,191.293 c -0.1523,8.309 -6.4726,13.059 -14.2539,14.516 -8.1406,1.527 -17.5859,1.773 -23.5508,1.203 16.6836,13.621 50.9848,13.965 69.4458,6.566 -13.872,-0.191 -27.122,-8.98 -31.6411,-22.285 M 4.96875,264.27 c -1.61719,0.14 -1.94531,7.914 0.26563,7.863 25.71482,-0.629 47.52732,-2.215 72.63282,-10.102 -3.0313,-2.593 -5.2109,-6.133 -6.0781,-10.144 C 49.6602,259.453 28,262.285 4.96875,264.27 m 0.23438,-13.672 c -1.94922,0.308 -1.95313,9.886 -0.14454,9.648 20.05861,-2.617 39.00391,-4.691 58.60941,-10.469 -0.8594,-4.047 -0.875,-8.093 -0.1563,-11.953 -19.332,5.696 -38.4844,9.617 -58.30857,12.774 m 0,-17.282 c -1.62891,0.485 -2.66016,12.457 0.39453,11.922 20.04684,-3.566 39.55074,-6.625 59.22654,-12.218 2.5039,-6.93 5.9571,-10.661 9.6797,-14.907 -11.3984,-4.093 -52.4023,10.176 -69.30077,15.203 m 0.41796,-28.589 c -1.61328,-0.114 -4.972652,24.101 1.11329,22.398 19.07812,-5.32 38.92972,-11.258 58.09372,-13.375 -3.5742,-1.984 -6.7578,-4.25 -9.4804,-6.738 -6.6446,0.074 -13.2188,-0.02 -19.7227,-0.274 -10.0039,-0.398 -20.0117,-1.265 -30.00391,-2.011 m 0.33985,-16.872 c -3.44141,-0.089 -3.31641,12.454 -0.10156,12.836 25.10152,2.989 47.53902,3.313 72.07032,1.645 -7.2109,-4.477 -8.4766,-14.465 -2.6758,-20.598 -22.3281,5.028 -46.3945,6.742 -69.29296,6.117 M 4.03125,162.98 3.98047,180.684 c -0.00391,1.504 0.94141,2.429 1.84766,2.539 12.60157,1.593 27.89847,0.656 40.75387,-0.61 l 0.9375,-0.093 C 34.5313,177.199 15.3008,165.797 7.18359,160.598 6.125,160.074 5.17578,160.156 4.45703,160.684 c -0.6875,0.496 -0.42578,1.441 -0.42578,2.296 m 98.12475,-2.308 c -5.4372,4.105 -10.5037,11.66 -12.6833,17.641 3.2929,1.152 6.0156,3.625 7.5468,6.734 -0.7539,-7.168 1.0391,-14.809 5.1715,-21.09 0.454,-0.695 0.907,-1.394 1.446,-2.023 1.558,-1.817 0.453,-2.715 -1.481,-1.262 M 45.1172,62.6914 C 30.6641,61.7695 5.44922,63.3477 0,79.8164 16.0352,115.828 35.8672,150.188 60.8125,180.789 c 1.9102,-0.301 3.8164,-0.621 5.7227,-0.973 C 50.375,141.66 45.7773,103.918 45.1172,62.6914 M 6.74219,111.449 c -4.78906,-3.09 -10.57032,34.778 0,42.676 11.65231,8.09 22.75781,15.063 35.38671,22.992 l 8.1914,5.094 c 1.7774,-0.203 3.5508,-0.422 5.3242,-0.668 -1.5117,-1.68 -4.5898,-5.156 -5.1367,-5.762 C 35.2266,158.957 17.582,129.047 6.74219,111.449 M 147.297,216.797 c 3.633,-1.262 -0.711,-13.274 -3.356,-12.567 -2.839,0.375 -5.476,0.122 -7.617,-1.707 1.871,-3.933 6.332,-13.539 7.778,-19.933 0.539,-2.375 1.207,-8.07 -1.473,-9.656 -1.852,-1.094 -5.031,-0.805 -9.348,-1.309 l -0.625,-4.48 c 0.309,-0.625 1.121,-0.872 1.074,-1.321 -0.05,-0.621 -1.484,-3.16 -4.378,-3.027 0.398,-1.5 1.461,-2.152 1.066,-4.465 -0.246,-1.422 -2.91,-1.641 -4.695,-2.59 -1.758,-0.937 -0.934,-1.496 -1.993,-1.594 -0.21,0.04 -0.449,0.079 -0.707,0.122 -25.0855,4.398 -25.9644,36.085 -7.164,48.218 l 5.754,-1.89 c 1.61,-0.524 1.453,-0.629 -0.332,-1.219 -0.722,-0.242 -1.5,-0.391 -2.273,-0.535 -2.004,-0.395 -2.192,-0.36 -0.133,-1.078 2.391,-0.836 5.234,-1.379 6.969,-2.008 0.898,-0.32 0.863,-0.617 1.539,0.316 0.73,0.989 0.746,2.184 0.203,3.543 1.254,-0.035 2.375,0.11 3.23,0.625 1.813,1.071 1.207,1.731 -0.668,1.629 -1.234,-0.07 -2.5,-0.473 -3.664,-0.137 l -7.996,2.262 c 3.055,2.695 9.215,5.567 15.977,5.129 l 2.969,11.105 z M 127.824,148.32 c 7.625,-6.511 19.156,-1.73 12.867,-6.5 -20.644,-15.652 -51.0074,11.586 -55.0855,34.407 0.9179,-0.039 1.8242,-0.043 2.7109,-0.004 4.2344,-9.231 5.5469,-12.891 14.4216,-19.582 4.91,-3.692 9.485,-5.395 16.032,-5.973 5.457,-0.477 4.668,1.398 9.054,-2.348 m 51.211,80.446 c 5.059,-12.918 4.512,-30.496 -6.945,-37.582 -3.973,-2.446 -5.547,0.257 -2.649,3.269 2.243,2.324 2.141,7.223 1.418,9.777 -2.996,10.625 -22.761,17.528 -32.14,20.415 3.617,13.406 1.726,26.925 -3.797,39.523 18.789,-5.398 36.68,-16.414 44.113,-35.402 M 57.9805,58.9414 c -2.9532,32.125 -1.1328,90.6956 12.8047,120.0626 3.1132,-0.625 6.1289,-1.574 9.3398,-2.133 -0.043,-0.512 -0.3086,-4.277 -0.3242,-4.617 C 76.9922,128.883 94.0859,101.383 119.203,88.7617 116.434,60.5508 80.7617,54.2578 57.9805,58.9414 m 88.5425,75.9496 c 5.942,-10.063 -3.039,-36.9652 -15.394,-39.223 -32.3204,6.91 -51.9493,50.602 -48.9767,80.883 0.461,-0.067 0.9219,-0.117 1.3711,-0.164 0.1016,-1.293 0.6641,-3.602 0.9922,-4.883 6.0703,-23.774 35.7504,-49.824 62.0074,-36.613"
         style="fill:#213769;fill-opacity:1;fill-rule:evenodd;stroke:none"
         id="path14" /><path
         d="m 398.375,193.367 v 34.207 l -10.551,-0.023 v 9.07 h 28.973 v -9.047 h -10.492 v -34.207 z m 286.363,28.543 v 12.074 c -6.984,6.258 -16.543,5.352 -22.5,-2.554 -3.328,-4.453 -4.925,-10.27 -4.925,-16.438 0,-7.238 2.214,-13.82 6.621,-18.324 6.117,-6.285 14.449,-6.152 20.804,-0.555 v 10.973 c -4.57,-5.035 -12.004,-8.203 -16.75,-1.602 -1.777,2.457 -2.66,5.661 -2.66,9.621 0,3.938 0.895,7.188 2.68,9.711 3.957,5.606 9.922,4.516 14.187,0.133 z m -96.836,19.387 2.774,3.621 -1.953,2.543 -4.676,-6.106 z M 473.809,221.91 v 12.074 c -7,6.258 -16.563,5.368 -22.504,-2.554 -3.332,-4.457 -4.93,-10.27 -4.93,-16.438 0,-7.238 2.219,-13.82 6.617,-18.324 6.098,-6.25 14.422,-6.18 20.817,-0.555 v 10.973 c -4.567,-5.035 -12.02,-8.203 -16.758,-1.602 -1.77,2.457 -2.656,5.661 -2.656,9.621 0,3.938 0.898,7.188 2.679,9.711 3.953,5.606 9.918,4.504 14.176,0.133 z m 164.187,-8.121 v 3.582 h -14.117 v -8.789 h 6.285 v -6.289 c -1.394,-0.551 -2.828,-0.922 -4.285,-0.922 -6.234,0 -10.106,6.043 -10.106,13.938 0,3.882 0.965,7.129 2.93,9.726 3.18,4.227 8.164,4.961 12.199,2.465 1.528,-0.937 3.051,-2.422 4.598,-4.437 l 0.848,10.824 c -1.633,1.402 -3.328,2.449 -5.106,3.152 -6.359,2.527 -13.656,0.645 -18.422,-5.523 -3.386,-4.371 -5.074,-9.903 -5.074,-16.582 0,-13.286 7.383,-22.985 17.586,-22.985 4.395,0 8.766,1.84 12.664,4.391 z m 6.66,-20.422 h 7.93 v 43.254 h -7.93 z m -94.676,39.649 v -39.649 h 20.86 v 9.278 h -12.938 v 33.976 h -7.933 z m -70.835,0 v -39.649 h 7.312 v 23.594 l 19.379,-23.594 h 2.047 v 43.254 h -7.309 v -23.844 l -19.523,23.844 -1.922,0.027 z m -57.379,0 v -39.649 h 20.629 v 9.098 h -12.942 v 8.551 h 7.453 v 8.867 h -7.453 v 7.816 h 12.758 v 8.922 H 421.746 Z M 512,214.992 c 0,12.594 7.191,23.035 16.934,23.035 9.871,0 16.921,-10.441 16.921,-23.035 0,-12.515 -7.05,-23.043 -16.921,-23.043 -9.743,0 -16.934,10.61 -16.934,23.043 m 8.16,0 c 0,-6.683 3.242,-13.25 8.774,-13.25 5.57,0 8.761,6.52 8.761,13.25 0,6.735 -3.175,13.321 -8.761,13.321 -5.567,0 -8.774,-6.614 -8.774,-13.321 m 50.278,0 c 0,3.207 0.421,6.196 1.273,8.992 2.535,8.426 8.676,14.043 15.652,14.043 9.953,0 16.922,-10.558 16.922,-23.035 0,-12.617 -7.148,-23.043 -16.922,-23.043 -9.812,0 -16.925,10.696 -16.925,23.043 m 8.156,0 c 0,-6.683 3.23,-13.25 8.769,-13.25 5.571,0 8.77,6.52 8.77,13.25 0,6.735 -3.18,13.321 -8.77,13.321 -5.574,0 -8.769,-6.614 -8.769,-13.321 m 125.488,23.035 c 6.91,0 13.188,-5.593 15.676,-13.992 0.836,-2.785 1.25,-5.808 1.25,-9.043 0,-12.5 -7.051,-23.043 -16.926,-23.043 -9.777,0 -16.898,10.641 -16.918,22.969 -0.027,12.457 7.035,23.109 16.918,23.109 m -8.769,-23.035 c 0,-6.683 3.238,-13.25 8.769,-13.25 5.586,0 8.77,6.508 8.77,13.25 0,6.735 -3.172,13.321 -8.77,13.321 -5.566,0 -8.769,-6.614 -8.769,-13.321"
         style="fill:#213769;fill-opacity:1;fill-rule:evenodd;stroke:none"
         id="path16" /><path
         d="m 781.773,157.691 c -4.476,4.34 -10.73,5.434 -14.878,-0.132 -3.75,-5.008 -3.832,-14.243 -0.028,-19.219 4.957,-6.524 12.778,-3.418 17.586,1.594 v -10.899 c -6.676,-5.558 -15.418,-5.68 -21.836,0.555 -8.554,8.269 -9.324,24.965 -1.789,34.535 6.25,7.855 16.281,8.746 23.625,2.539 v -11.996 z m -90.714,14.426 1.679,2.067 -2.043,2.527 -3.726,-4.594 z m 52.48,-6.414 v -39.402 h 8.316 v 42.972 h -8.312 z m -27.543,-17.176 -12.519,-22.226 h 9.101 l 8.027,14.586 8.458,-14.586 h 10.238 l -13.731,23.121 11.219,19.851 h -9.047 l -6.758,-12.269 -7.183,12.269 h -8.047 z m -37.152,17.176 v -39.402 h 21.652 v 9.043 h -13.582 v 8.496 h 8.176 v 8.805 h -8.176 v 7.769 h 13.387 v 8.859 h -21.453 z m -37.766,3.574 -7.133,-42.976 h 7.414 l 3.063,19.918 9.203,-19.918 h 2.125 l 8.617,19.633 2.957,-19.633 h 7.903 l -7.051,42.972 h -1.473 l -11.781,-26.582 -12.492,26.582 z m 154.774,-21.484 c 0,-6.645 3.39,-13.176 9.195,-13.176 5.855,0 9.203,6.477 9.203,13.176 0,6.687 -3.34,13.227 -9.203,13.227 -5.836,0 -9.195,-6.571 -9.195,-13.227 m -8.563,0 c 0,12.324 7.391,22.883 17.758,22.883 10.449,0 17.766,-10.496 17.766,-22.883 0,-12.551 -7.508,-22.883 -17.766,-22.883 -10.301,0 -17.758,10.602 -17.758,22.883"
         style="fill:#213769;fill-opacity:1;fill-rule:evenodd;stroke:none"
         id="path18" /><path
         d="m 556.977,166.305 v -39.2 h 9.214 c 4.34,0 8.305,0.5 12.145,3.215 5.59,3.973 8.555,10.172 8.555,18.153 0,6.632 -1.836,11.851 -5.493,15.66 -3.668,3.808 -8.75,5.719 -15.207,5.719 h -9.207 z m 34.55,0 v -39.2 h 21.532 v 9 h -13.508 v 8.446 h 8.785 v 8.762 h -8.785 v 7.73 h 13.32 v 8.809 c -8.012,0 -13.336,-0.039 -21.336,-0.039 z m -81.476,-39.2 h 21.785 v 9.18 h -13.504 v 33.567 h -8.273 z m -38.078,0 h 8.336 l 2.234,6.223 h 14.062 l 2.204,-6.223 h 8.656 l -16.766,42.747 h -1.578 z m 12.968,13.575 4.618,13.394 4.496,-13.394 z m -45.457,25.625 v -39.2 h 7.625 v 23.317 l 20.118,-23.172 h 2.253 v 42.602 h -7.632 v -23.563 l -20.383,23.563 h -1.973 z m -51.879,0 v -39.2 h 8.266 v 42.747 h -8.266 z m -9.531,-7.981 c -4.453,4.328 -10.676,5.406 -14.812,-0.133 -1.864,-2.488 -2.793,-5.695 -2.793,-9.609 0,-3.906 0.918,-7.07 2.773,-9.512 4.949,-6.504 12.719,-3.386 17.488,1.602 v -10.844 c -6.667,-5.562 -15.359,-5.629 -21.726,0.543 -4.59,4.461 -6.902,10.953 -6.902,18.102 0,6.105 1.668,11.851 5.132,16.25 6.243,7.855 16.239,8.672 23.496,2.531 V 155.32 Z m -59.558,-31.219 h 8.328 l 2.246,6.223 h 14.062 l 2.188,-6.223 h 8.668 l -16.778,42.747 h -1.578 z m 12.968,13.575 4.614,13.394 4.496,-13.394 z m -45.461,-13.575 0.032,42.747 h 1.957 l 20.375,-23.563 v 23.563 h 7.64 v -42.747 h -2.257 l -20.11,23.317 v -23.317 z m 114.633,21.368 c 0,12.449 7.496,22.777 17.668,22.777 10.403,0 17.668,-10.43 17.668,-22.777 0,-12.356 -7.359,-22.762 -17.668,-22.762 -10.097,0 -17.668,10.406 -17.668,22.762 m 8.512,0 c 0,-6.598 3.387,-13.098 9.156,-13.098 5.821,0 9.149,6.457 9.149,13.098 0,6.652 -3.313,13.175 -9.149,13.175 -5.808,0 -9.156,-6.531 -9.156,-13.175 m 155.988,-12.188 v 24.445 h 1.817 c 3.613,0 6.453,-1.078 8.484,-3.261 2.043,-2.188 3.066,-5.168 3.066,-8.996 0,-3.805 -1.023,-6.793 -3.066,-8.953 -2.031,-2.153 -4.871,-3.235 -8.484,-3.235 h -1.817"
         style="fill:#213769;fill-opacity:1;fill-rule:evenodd;stroke:none"
         id="path20" /><path
         d="m 839.227,147.66 c 6.242,-0.015 11.187,-4.965 11.171,-11.18 -0.027,-6.238 -5.023,-11.218 -11.246,-11.187 -6.214,0.027 -11.136,5.016 -11.105,11.25 0.012,6.203 4.973,11.129 11.18,11.117 m -0.02,-1.492 c -5.285,0.016 -9.586,-4.293 -9.609,-9.625 -0.02,-5.398 4.191,-9.676 9.55,-9.699 5.372,-0.024 9.633,4.23 9.668,9.648 0.032,5.321 -4.273,9.653 -9.609,9.676"
         style="fill:#213769;fill-opacity:1;fill-rule:evenodd;stroke:none"
         id="path22" /><path
         d="m 836.867,135.309 v -4.871 h -2.129 v 12.171 c 0.012,0.016 0.035,0.047 0.067,0.047 2.281,-0.031 4.578,0.231 6.843,-0.211 2.325,-0.453 3.411,-3.238 2.032,-5.121 -0.426,-0.57 -0.953,-0.867 -2.223,-1.191 0.164,-0.059 0.266,-0.11 0.367,-0.141 1.293,-0.398 2.192,-1.605 2.219,-3.012 0.02,-0.839 0.008,-1.691 0.008,-2.562 h -1.848 c -0.035,0.371 -0.066,0.727 -0.094,1.082 -0.046,0.605 -0.031,1.223 -0.144,1.809 -0.215,1.105 -0.852,1.718 -1.957,1.836 -1.016,0.109 -2.035,0.109 -3.141,0.164 m 0.028,1.445 c 0.628,0 1.23,-0.027 1.835,0.004 0.618,0.035 1.243,0.066 1.848,0.207 0.981,0.219 1.5,0.937 1.52,1.953 0.027,1.117 -0.371,1.773 -1.297,2.043 -1.281,0.363 -2.598,0.223 -3.906,0.238 v -4.445"
         style="fill:#213769;fill-opacity:1;fill-rule:evenodd;stroke:none"
         id="path24" /></g></g></svg>
